<svg version="1" xmlns="http://www.w3.org/2000/svg" width="2541.333" height="2541.333" viewBox="0 0 1906.000000 1906.000000"><path d="M915.5 178.6c-11.9 1.6-16.6 2.3-24.5 3.9-.3.1-1.8.4-3.5.8-1.6.4-3.9.9-5 1.1-4.9 1-23.2 6.7-35.1 11-9.2 3.4-28.6 12.1-38.9 17.5-16.6 8.8-25 13.5-40.5 22.6-6.3 3.7-12.7 7.6-14.2 8.6-1.4 1.1-2.9 1.9-3.2 1.9-1 0-28.4 18.3-36.6 24.4-13.1 9.8-20.5 16.9-28.2 27.1-13.1 17.3-18.1 26.4-28.3 50.6-3.1 7.4-6.3 14.7-7 16.4-.7 1.6-2.1 5-3.1 7.5-5.6 14.1-16.5 33.9-21.7 39.3-2.3 2.4-12.4 9.2-21.7 14.6-3 1.8-6.2 3.6-7 4.1-3.8 2.4-24.2 14.3-55 32-18.4 10.6-38.9 22.5-45.5 26.3-6.6 3.8-13.3 7.7-15 8.7-16.2 9.2-49 27.9-53.9 30.7-10.3 5.8-18.7 9.4-23 10-7.9 1-30.6.3-38.4-1.2-1.8-.3-2.3-.4-28.2-3.6-17.8-2.2-42.4-2.9-53-1.5-3 .4-7.5.9-10 1.2-16 1.8-48.6 15.9-86 37.2-6.3 3.6-15.3 8.5-20 11-36.4 19-66.7 43.9-92.1 75.7-6.3 7.8-19.2 26.5-23.3 33.5-6.6 11.4-15.8 29.4-19.6 38.5-2.3 5.5-4.8 11.3-5.5 13-1.6 3.5-6.5 17.3-7 19.5-.2.8-.8 2.8-1.4 4.3-3.8 9.7-13 51-14.7 65.2-.3 3.3-.8 6.8-1 7.8-.1.9-.6 5.6-.9 10.5-.4 4.8-.8 9.8-1 11.2-2.6 15.5-2.6 116.4 0 140.1.2 1.9.6 7.9 1 13.4.3 5.5.8 11.8 1 14 .2 2.2.7 6.7 1 10 .3 3.3.8 7.8 1 10 .3 2.2.7 6.5 1 9.6.3 3.1.7 6.5.9 7.5.2 1.1.7 5 1.1 8.7.3 3.7.8 7.6.9 8.5.2.9.7 4.4 1 7.7.7 5.9 1.1 8.7 2.1 14.2.2 1.6.7 4.8 1 7.3.3 2.5.7 5.4.9 6.5.4 2 1.5 9 2.1 13.5 2.3 16 11.5 64.4 15.5 81.7 1.1 4.4 2.2 9.5 2.5 11.2.3 1.7 1.9 8.8 3.6 15.8 1.7 7.1 3.3 13.9 3.5 15.1.3 1.3 1.2 4.9 2 8 .8 3.2 1.7 6.4 1.9 7.2 3.6 14.7 4.8 19 5.6 21.5.5 1.6 3.2 11.1 5.9 21 2.8 9.9 5.5 19.1 6 20.5.5 1.4 2.5 7.9 4.5 14.5 15.7 51.3 42.5 120.4 61.6 158.7 21.1 42.4 49.7 90.6 68.9 116.3 44 58.6 91.4 94.7 137.5 104.5 14.2 3 37.4 3.7 52.5 1.6 29.5-4.1 55.8-15 87.5-36.1 12.7-8.5 12.1-8 27.7-20.9 14.9-12.2 20.8-17.7 41.8-38.7 32.9-33 51.1-54 90.5-104.3 3.9-4.9 9.9-12.6 13.5-17.2 3.6-4.5 8.9-11.3 11.7-15.1 8.6-11.1 35.3-45.7 36.6-47.3.7-.8 2.8-3.5 4.7-6 1.9-2.5 3.7-4.7 4-5 .3-.3 3.9-4.6 8-9.5 4.1-5 8.1-9.6 8.8-10.4 1.3-1.3 44.9-1.5 327.6-1.6 183 0 327.3.3 328.9.8 1.5.5 2.7 1.2 2.7 1.5 0 .6 5 7 15.5 19.7 1.9 2.2 5.7 6.9 8.5 10.5 2.8 3.6 5.6 7.2 6.3 8 2.9 3.6 19.6 25.2 35.7 46 14.8 19.1 31.1 39.9 44.3 56.5 4.3 5.3 23.8 28.7 25.1 30.1.6.6 3.6 3.9 6.6 7.4 15.4 17.7 46.7 49 66.5 66.6 9 8 24.7 20.4 31.5 24.9 2.5 1.7 4.7 3.2 5 3.5.8.9 13.1 8.5 20.8 12.9 16.3 9.4 41.7 19.4 54.4 21.5 1.8.3 5.8 1 8.8 1.7 3 .6 12.9 1.2 22 1.4 24.4.3 43-3.2 63.3-12.1 8.2-3.5 23.9-12.3 25.7-14.3.3-.4 2.3-1.9 4.5-3.5 4.8-3.6 18.6-17.3 23.5-23.5 11.8-14.6 25-39 32.3-59.6 3.1-8.6 9.3-29 10.2-33.5 6.6-32 9.8-54.3 11.2-79.5 1.5-23.7.7-87.7-1.2-103.5-.2-1.9-.7-7.1-1-11.5-.3-4.4-1.1-12.3-1.7-17.5-.5-5.2-1.1-10.9-1.3-12.5-.1-1.7-.5-5-.9-7.5-.3-2.5-.8-6.8-1.1-9.5-.3-2.8-.8-6.2-1-7.8-.8-4.5-2.2-13.7-3-19.7-.4-3.1-3.4-20.7-3.9-23.6-.3-1.2-.7-3.9-1-6-.9-5.5-9.5-48.2-10.6-52.4-.5-1.9-1.1-4.6-1.4-6-.9-4.5-2.4-11.4-4.6-20-1.2-4.7-2.5-10.1-3-12-2.4-10.4-5.8-23.2-13.6-50.8-10.1-36-30.2-95.6-44.8-133.2-6.5-16.4-23.4-57.2-27.9-67-23.4-51.3-46.6-96-67.2-129.6-1.1-1.8-6.5-10.6-12-19.6-5.5-9-10.5-17.2-11.1-18.3-.6-1.1-6.6-10.9-13.5-21.8-6.8-10.9-12.8-20.6-13.4-21.5-2.7-4.7-21-31.9-22.2-33-.7-.7-1.3-1.7-1.3-2.1 0-.4-1.1-2.1-2.5-3.7s-2.5-3.4-2.5-4.1c0-.6-.3-1.3-.8-1.5-.4-.2-4.5-5.7-9.1-12.3-14.9-21.2-57.2-76.9-61.1-80.5-.3-.3-2.5-3-5-6-5.4-6.6-8.2-9.9-9.5-11.4-.5-.6-3.5-4-6.5-7.6-3-3.6-6.7-7.8-8.2-9.5-1.4-1.6-3.5-4-4.6-5.3-1.1-1.3-5.8-6.4-10.4-11.5-24.6-27-50.9-53.3-73.3-73.2-9.3-8.3-17.4-15.8-27.9-25.8-3.3-3.2-7.7-7.3-9.7-9-3.1-2.8-16.6-15-25-22.7-1.5-1.4-3.6-3.2-4.6-4-1-.9-8.5-7.4-16.8-14.4-19.2-16.4-18.7-16-27.5-23.1-4.1-3.3-7.7-6.2-8-6.5-1.9-2-37.6-29.4-55-42.1-23.4-17.2-76.7-53-81.4-54.8-.6-.2-2.4-1.3-4.1-2.5-1.6-1.2-3.9-2.6-5-3.2-1.1-.6-9-5.2-17.5-10.1-62.2-36-123.8-61.5-170-70.3-3-.6-6.4-1.2-7.5-1.4-1.2-.2-4.8-.7-8-1.1-3.3-.4-7.1-.9-8.5-1.2-5.2-1.1-47.7-.9-56.5.3zm7.5 174.8c0 .2-.8 1-1.7 1.7-1.6 1.3-1.7 1.2-.4-.4 1.3-1.6 2.1-2.1 2.1-1.3zm-4 3.9c0 .2-1.5 1.6-3.2 3.3l-3.3 2.9 2.9-3.3c2.8-3 3.6-3.7 3.6-2.9zm151 35.1c0 .2-.8 1-1.7 1.7-1.6 1.3-1.7 1.2-.4-.4 1.3-1.6 2.1-2.1 2.1-1.3zm-4 3c0 .2-.8 1-1.7 1.7-1.6 1.3-1.7 1.2-.4-.4 1.3-1.6 2.1-2.1 2.1-1.3zm-176 101c0 .2-.7.7-1.6 1-.8.3-1.2.2-.9-.4.6-1 2.5-1.4 2.5-.6zm-6 3c0 .2-.8 1-1.7 1.7-1.6 1.3-1.7 1.2-.4-.4 1.3-1.6 2.1-2.1 2.1-1.3zm-8 8c0 .2-.8 1-1.7 1.7-1.6 1.3-1.7 1.2-.4-.4 1.3-1.6 2.1-2.1 2.1-1.3zm-4.2 5.6c-.7 1-1.4 1.7-1.7 1.5-.4-.4 1.8-3.5 2.5-3.5.2 0-.1.9-.8 2zM181.5 805c-.3.5-1.2 1-1.8 1-.7 0-.6-.4.3-1 1.9-1.2 2.3-1.2 1.5 0zM165 923.5c0 .2-1 .9-2.2 1.5-2.2 1.1-2.2 1-.4-.4 2.1-1.7 2.6-1.9 2.6-1.1zm-19 11c0 .2-1 .9-2.2 1.5-2.2 1.1-2.2 1-.4-.4 2.1-1.7 2.6-1.9 2.6-1.1zm1007.3 318c-.3.9-.8 1.4-1 1.1-.3-.3-.2-.9.2-1.5.9-1.6 1.5-1.3.8.4zm-1.6 9.7c-.3.8-.6.5-.6-.6-.1-1.1.2-1.7.5-1.3.3.3.4 1.2.1 1.9zm-1 12c-.3.7-.5.2-.5-1.2s.2-1.9.5-1.3c.2.7.2 1.9 0 2.5zm0 4c-.3.8-.6.5-.6-.6-.1-1.1.2-1.7.5-1.3.3.3.4 1.2.1 1.9zm1 8c-.3.8-.6.5-.6-.6-.1-1.1.2-1.7.5-1.3.3.3.4 1.2.1 1.9zm1.1 4.3c-.3.3-.9-.2-1.2-1.2-.6-1.4-.5-1.5.5-.6.7.7 1 1.5.7 1.8zm1.9 9.7c-.3.8-.6.5-.6-.6-.1-1.1.2-1.7.5-1.3.3.3.4 1.2.1 1.9zm-367.2 2.4c1.5 3.7 1.9 5.1 1 4.3-.8-.9-3.5-7.9-3-7.9.2 0 1.2 1.6 2 3.6zm369.5 2.9c0 .5-.5.3-1-.5s-1-2-1-2.5c0-.6.5-.3 1 .5s1 1.9 1 2.5zm18.2 26.9c4.2 4.4 7.6 8.2 7.4 8.4-.2.1-3.8-3.4-8-7.8-6.8-7.3-17.6-22.8-17.6-25.4 0-.5 2.4 3 5.3 7.9s8.6 12.4 12.9 16.9zm-375.8-8c2.5 3.5 7.8 9.4 11.8 13.1 4 3.8 6.2 6.1 4.9 5.2-4-2.7-12.2-10.9-16.2-16.2-4.6-6.1-10.9-16.5-10.9-17.9 0-.6 1.3 1.3 2.9 4.2 1.6 2.8 5 8.1 7.5 11.6zm386.7 18.3c1.3 1.6 1.2 1.7-.3.4-1-.7-1.8-1.5-1.8-1.7 0-.8.8-.3 2.1 1.3zm-361.6 4.8l2 1.6-2-1c-1.1-.5-2.9-1.7-4-2.6l-2-1.6 2 1c1.1.5 2.9 1.7 4 2.6zm368.5.2c0 .7-3.9-1.7-4.6-2.8-.3-.6.5-.3 2 .6 1.4 1 2.6 1.9 2.6 2.2zm4.4 1.8c1.1.8 1.6 1.5 1 1.5-.5 0-1.8-.7-2.8-1.5-1.1-.8-1.6-1.5-1-1.5.5 0 1.8.7 2.8 1.5zm-365.9 1.5c.3.6-.1.7-.9.4-1.8-.7-2.1-1.4-.7-1.4.6 0 1.3.4 1.6 1zm374.6 2.5c1.9.8 2.7 1.4 1.9 1.4-1.4 0-7.2-2.8-5.9-2.9.4 0 2.2.7 4 1.5zm-367.1.5c.8.5 1.1 1 .5 1-.5 0-1.7-.5-2.5-1s-1-1-.5-1c.6 0 1.7.5 2.5 1zm5.5 2c.3.5.1 1-.4 1-.6 0-1.1-.5-1.1-1 0-.6.2-1 .4-1 .3 0 .8.4 1.1 1zm6.2 1.6c-.3.3-1.2.4-1.9.1-.8-.3-.5-.6.6-.6 1.1-.1 1.7.2 1.3.5zm5 1c-.3.3-1.2.4-1.9.1-.8-.3-.5-.6.6-.6 1.1-.1 1.7.2 1.3.5z"/></svg>