<?xml version="1.0" encoding="UTF-8" standalone="no"?>
<svg
   xmlns:dc="http://purl.org/dc/elements/1.1/"
   xmlns:cc="http://creativecommons.org/ns#"
   xmlns:rdf="http://www.w3.org/1999/02/22-rdf-syntax-ns#"
   xmlns:svg="http://www.w3.org/2000/svg"
   xmlns="http://www.w3.org/2000/svg"
   xmlns:sodipodi="http://sodipodi.sourceforge.net/DTD/sodipodi-0.dtd"
   xmlns:inkscape="http://www.inkscape.org/namespaces/inkscape"
   version="1.0"
   width="1429.2798pt"
   height="1164.4128pt"
   viewBox="0 0 1429.2798 1164.4128"
   preserveAspectRatio="xMidYMid meet"
   id="svg8"
   sodipodi:docname="logo-2.svg"
   inkscape:version="0.92.4 (5da689c313, 2019-01-14)">
  <defs
     id="defs12" />
  <sodipodi:namedview
     pagecolor="#ffffff"
     bordercolor="#666666"
     borderopacity="1"
     objecttolerance="10"
     gridtolerance="10"
     guidetolerance="10"
     inkscape:pageopacity="0"
     inkscape:pageshadow="2"
     inkscape:window-width="2560"
     inkscape:window-height="1403"
     id="namedview10"
     showgrid="false"
     inkscape:snap-bbox="false"
     inkscape:bbox-paths="true"
     inkscape:bbox-nodes="true"
     inkscape:snap-bbox-edge-midpoints="true"
     inkscape:snap-bbox-midpoints="true"
     inkscape:object-paths="true"
     inkscape:snap-intersection-paths="true"
     inkscape:snap-smooth-nodes="true"
     inkscape:snap-midpoints="true"
     inkscape:snap-object-midpoints="true"
     inkscape:snap-center="false"
     fit-margin-top="0"
     fit-margin-left="0"
     fit-margin-right="0"
     fit-margin-bottom="0"
     inkscape:zoom="0.42909091"
     inkscape:cx="1663.9528"
     inkscape:cy="497.81631"
     inkscape:window-x="2560"
     inkscape:window-y="0"
     inkscape:window-maximized="1"
     inkscape:current-layer="svg8"
     inkscape:snap-global="true"
     inkscape:snap-nodes="false"
     inkscape:snap-others="false" />
  <metadata
     id="metadata2">
Created by potrace 1.15, written by Peter Selinger 2001-2017
<rdf:RDF>
  <cc:Work
     rdf:about="">
    <dc:format>image/svg+xml</dc:format>
    <dc:type
       rdf:resource="http://purl.org/dc/dcmitype/StillImage" />
    <dc:title></dc:title>
  </cc:Work>
</rdf:RDF>
</metadata>
  <g
     style="fill:#13293d;fill-opacity:1;stroke:none"
     id="g824"
     transform="matrix(0.1,0,0,-0.1,149.4,1164.5273)">
    <path
       sodipodi:nodetypes="ccsccccccccccccccccccccccscccccccccsccccccccccccccccccccccccccccccccccccccsccccccccccsccccccccccccccccccccccc"
       inkscape:connector-curvature="0"
       id="path822"
       d="M 1713,7300 C 937,6246 262,4441 60,2885 16,2545 6,2385 6,2025 6,1659 16,1518 60,1270 195,521 548,96 1103,14 c 264,-39 525,12 787,153 249,134 457,300 750,599 257,262 426,464 860,1029 139,182 295,381 347,442 l 94,113 h 2459 2459 l 94,-113 c 52,-61 220,-276 375,-477 456,-594 628,-795 918,-1080 246,-240 416,-374 629,-494 278,-156 547,-213 822,-172 129,19 235,52 344,107 679,340 915,1448 654,3064 -210,1300 -740,2753 -1371,3764 -204,326 -395,571 -619,797 -589.579,573.8859 -1232.56,594.7839 -1665,598.1335 -830,3 -856,-94.1335 -920,-113.1335 -85,-26 -209,-105 -410,-261 -181,-140 -280,-204 -357,-232 -49,-17 -104,-18 -953,-18 -849,0 -904,1 -953,18 -77,28 -176,92 -357,232 -200,155 -324,234 -408,260 -62,19 -93,116.1335 -896,115.1335 C 2874.5855,8409.5499 2145.7905,7878.2203 1713,7300 Z m 7870,-314 c 105,-25 197,-106 233,-208 20,-55 20,-161 0,-216 -83,-232 -381,-295 -546,-116 -65,70 -85,123 -85,224 0,65 5,96 21,131 42,90 125,159 223,185 60,16 84,16 154,0 z M 3360,6495 v -355 h 355 355 l -2,-236 -3,-235 -352,1 h -353 l -2,-357 -3,-358 -237,-3 -238,-2 v 360 360 h -355 -355 v 235 235 h 355 355 v 355 355 h 240 240 z m 5423,-309 c 108,-25 207,-118 237,-222 18,-62 9,-180 -18,-236 -31,-63 -96,-126 -162,-157 -80,-37 -192,-36 -271,2 -66,32 -132,99 -162,165 -31,66 -31,198 -1,263 43,92 132,165 231,188 55,13 81,12 146,-3 z m 1684,-26 c 113,-56 178,-161 178,-290 0,-65 -5,-85 -33,-142 -58,-119 -161,-183 -292,-183 -132,1 -234,65 -292,183 -28,57 -33,76 -33,142 1,60 6,87 27,131 80,174 273,243 445,159 z m -805,-808 c 64,-31 126,-96 157,-162 34,-73 36,-191 4,-262 -30,-66 -95,-133 -162,-165 -48,-24 -68,-28 -141,-28 -73,0 -93,4 -142,28 -167,82 -234,293 -142,453 31,55 114,129 167,148 64,24 199,17 259,-12 z M 5155,4065 c 241,-51 446,-255 501,-501 34,-154 4,-333 -78,-472 -52,-89 -160,-191 -253,-239 -107,-55 -189,-76 -305,-76 -256,-1 -480,139 -590,368 -50,105 -64,169 -63,285 1,257 138,473 370,586 127,62 275,79 418,49 z m 2768,0 c 137,-29 284,-121 371,-231 96,-122 139,-252 139,-414 -1,-185 -66,-333 -204,-465 -127,-121 -273,-179 -449,-178 -177,1 -333,65 -455,188 -123,124 -183,257 -192,425 -7,123 13,220 69,333 82,164 260,303 438,341 85,19 199,19 283,1 z"
       style="fill:#13293d;fill-opacity:1" />
  </g>
  <g
     style="fill:#ffffff;fill-opacity:1;stroke:none"
     id="g848"
     transform="matrix(0.09659258,-0.0258819,-0.0258819,-0.09659258,320.48285,1233.9871)">
    <path
       sodipodi:nodetypes="ccccsccccccccccccccccccccccccccccccccccccccsccccccccccsccccccccccccccccccccccc"
       inkscape:connector-curvature="0"
       id="path846"
       d="m 8350.0582,7738.474 c 104.9999,-24.9999 197,-105.9999 232.9999,-207.9999 20.0001,-55 20,-161 0,-216 -83,-232 -381,-295 -545.9999,-116.0001 -65.0001,70.0001 -85.0001,123.0001 -85,224.0001 0,65 5,96 20.9999,131 42,90 125,159 223.0001,185 59.9999,16 83.9999,16 154,-1e-4 z m -6223.0001,-491 v -354.9999 h 355 355.0001 l -2.0001,-236 -3,-235 -352,1 h -353 l -2,-357 -2.9999,-358 -237.0001,-3 -238,-2 10e-5,360 -10e-5,360 h -355 -354.99992 l -2e-5,234.9999 2e-5,235.0001 h 355.00002 l 355,-1e-4 v 355.0001 l -10e-5,355 h 240 240 z m 5423,-309 c 108.0001,-24.9999 207,-117.9999 237.0001,-221.9999 17.9999,-62 8.9999,-180 -18.0001,-236 -31,-63 -96,-126 -162,-157 -79.9999,-37 -192,-36 -270.9999,1.9999 -66,32.0001 -132,99.0001 -162.0001,165.0001 -31,66 -30.9999,197.9999 -1,263 43.0001,92 132.0001,165 231,187.9999 55.0001,13.0001 81.0001,12.0001 146,-3 z m 1684,-26 c 113.0001,-55.9999 178.0001,-160.9999 178,-289.9999 10e-5,-65 -5,-85 -32.9999,-142 -58,-119 -161.0001,-183 -292.0001,-183 -132,1 -234,65 -292,183 -27.9999,57 -33,76 -33,142 1,60 6,87 27.0001,131 79.9999,174 273,242.9999 444.9999,158.9999 z m -805,-808 c 64.0001,-30.9999 126.0001,-95.9999 157.0001,-161.9999 33.9999,-73 35.9999,-191 3.9999,-262 -30,-66 -95,-133 -162,-165 -48,-24 -67.9999,-28 -141,-28 -73,0 -93,4 -142,28 -167,82 -233.9999,292.9999 -142,453 31.0001,54.9999 114,129 167,148 64.0001,24 199,17 259,-12.0001 z m -4507,-1286.9999 c 241,-51.0001 446,-255 501,-501 34,-154.0001 4.0001,-333 -77.9999,-472 -52.0001,-89 -160,-191 -253.0001,-239 -106.9999,-55 -188.9999,-76.0001 -304.9999,-76.0001 -256,-1 -480.0001,139.0001 -590.0001,368.0001 -50,105 -63.9999,169 -62.9999,285 0.9999,257 137.9999,473 370,585.9999 127,62.0001 275,79.0001 417.9999,49.0001 z m 2768,0 c 137.0001,-29 284.0001,-121 371.0001,-231 96,-122 139,-252 139,-414.0001 -1,-184.9999 -66.0001,-332.9999 -204,-464.9999 -127,-121 -273.0001,-179 -449.0001,-178 -176.9999,1 -333,65 -455,188 -122.9999,124 -183,256.9999 -191.9999,425 -7.0001,123 12.9999,220 68.9999,333 82,164 260,303 438,341 85.0001,19 199.0001,19 283,1 z"
       style="fill:#ffffff;fill-opacity:1" />
  </g>
  <g
     transform="matrix(0.09659258,-0.0258819,-0.0258819,-0.09659258,365.48285,1233.9871)"
     id="g852"
     style="fill:#ffffff;fill-opacity:1;stroke:none">
    <path
       style="fill:#ffffff;fill-opacity:1"
       d="m 9162.4711,5499.5839 c 94.9516,-51.324 162.8526,-153.3754 171.2263,-261.2173 5.0835,-58.3023 -22.3514,-160.6904 -55.9049,-208.64 -140.2179,-202.6128 -444.3694,-186.338 -557.4185,29.2677 -44.6679,84.4382 -50.269,140.8086 -24.1282,238.3671 16.8232,62.7852 29.6763,91.4348 54.1896,121.1011 63.8626,76.063 161.893,121.2299 263.2831,120.9796 62.0966,-0.074 85.2788,-6.2859 148.7526,-39.8582 z m -6138.0367,1136.3614 -91.8807,-342.9036 342.9036,-91.8808 342.9038,-91.8807 -63.0132,-227.4409 -63.7203,-226.2161 -339.7471,92.0702 -340.9718,91.3632 -94.3302,-344.3179 -95.5549,-345.025 -229.701,58.4423 -230.408,59.6671 93.175,347.7333 93.1747,347.7333 -342.9036,91.8808 -342.9036,91.8807 60.8224,226.9925 60.8225,226.9926 342.9037,-91.8807 342.9037,-91.8809 91.8807,342.9038 91.8807,342.9037 231.8222,-62.1166 231.8222,-62.1166 z M 8182.6751,4933.8985 c 97.8496,-52.1005 169.406,-167.5547 171.4667,-275.7756 1.3398,-64.5461 -37.8942,-176.196 -78.4681,-223.2997 -46.2493,-52.8299 -125.34,-96.86 -197.1145,-109.7217 -86.8503,-15.0337 -194.7753,14.92 -261.2482,72.0717 -55.4689,47.9918 -101.8791,129.7909 -113.7749,201.3066 -12.8617,71.7745 21.3025,199.2766 67.1035,254.2973 65.3462,77.7359 170.2074,125.2136 271.7868,121.8068 56.4907,-1.678 81.3459,-9.3732 140.2487,-40.6854 z m 1619.8898,-460.9653 c 94.6559,-83.3384 130.265,-201.5838 96.8773,-326.1882 -16.8232,-62.7852 -26.8293,-80.8096 -68.6278,-128.6205 -86.8231,-99.9336 -202.878,-135.0945 -329.4143,-101.1892 -127.2434,35.13 -209.2034,123.3488 -234.6865,252.3396 -12.2931,62.3047 -12.2053,81.9514 4.8768,145.7025 16.4951,57.6967 28.3128,82.4826 59.9854,119.5481 122.3085,147.3656 326.5907,164.0623 470.9891,38.4077 z m -986.6961,-572.1188 c 53.796,-46.508 96.8602,-125.34 109.7218,-197.1145 13.9476,-79.3124 -14.6612,-193.8093 -63.947,-254.1078 -46.0598,-55.9865 -126.1859,-103.8803 -199.1851,-117.4491 -52.5761,-10.7589 -72.9298,-9.4462 -143.4425,9.4476 -70.5126,18.8938 -88.7958,27.9339 -129.9145,63.7982 -140.0865,122.4287 -150.1926,343.5798 -19.9165,474.3167 44.1789,45.1024 143.5032,95.0991 199.6149,99.7343 68.031,6.6178 196.6191,-35.0843 247.0689,-78.6254 z m -4686.5278,-76.649 c 219.5883,-111.6377 364.8041,-361.7443 354.2605,-613.5971 -7.0167,-157.5526 -82.3229,-322.6887 -197.5047,-435.7292 -73.2631,-72.5088 -203.9826,-143.0808 -306.2371,-165.375 -117.589,-25.4323 -202.2301,-24.4937 -314.2775,5.5293 -247.5359,65.2918 -427.6686,258.497 -474.6509,508.1641 -21.1203,114.3631 -18.0788,179.8058 12.9102,291.5944 67.4823,247.9842 255.719,421.1659 509.0605,470.2694 138.7193,27.0175 286.0763,5.133 416.439,-60.8559 z m 2673.6827,-716.4111 c 124.8262,-63.4701 243.0059,-190.3816 298.5714,-319.1507 61.1529,-142.6896 69.0413,-279.3892 27.1126,-435.8693 -48.8475,-178.4373 -149.938,-304.5711 -317.3997,-396.3563 -153.9897,-84.007 -310.0265,-102.2431 -479.7706,-55.725 -170.71,46.7768 -304.8301,148.9719 -390.8383,299.3567 -86.7152,151.6095 -110.2479,295.6067 -75.4596,460.2117 25.0732,120.6206 69.4972,209.1391 152.8356,303.7948 121.6522,137.1887 329.5629,225.3826 511.3328,216.018 87.0213,-3.6471 197.1369,-33.1524 273.6158,-72.2799 z"
       id="path850"
       inkscape:connector-curvature="0"
       sodipodi:nodetypes="ccccsccccccccccccccccccccccccccccccccccccccsccccccccccsccccccccccccccccccccccc" />
  </g>
  <g
     transform="matrix(0.09659258,-0.0258819,-0.0258819,-0.09659258,227.30685,1164.6787)"
     id="g832"
     style="fill:#006494;fill-opacity:1;stroke:none">
    <path
       d="m 1203.7375,7138.0747 c -775.99972,-1054 -1450.99969,-2859 -1652.99971,-4415 -44.00001,-340 -54.00001,-500 -54.00001,-860 0,-366 10,-507 54.00001,-755.0001 135.00002,-749.00022 488,-1174.000265 1043,-1256.00022 263.99981,-39 524.99971,12 786.99971,152.9998608 249,134.0000392 457,300.0001392 750,599.0001392 257,262 426,464.00012 860,1029.00032 139,182 295,381 347,442 l 94,113 h 2459 2459 l 94,-113 c 52,-61 220,-276 375,-477 456,-594.0003 628,-795.00032 917.9984,-1080.00032 245.9983,-240 415.9981,-374.0001 628.9981,-494.000151 278,-155.999849 547,-212.999849 822,-171.999849 129,19 235,51.99999 344,106.99992 679,340.00008 915,1448.0004 654,3064.0004 -210,1300 -740,2753 -1371,3764 -204,326 -395,571 -619,797 -589.5762,573.8859 -1232.5565,594.7839 -1664.9965,598.1335 -830,3 -856,-94.1335 -920,-113.1335 -85,-26 -209,-105 -410,-261 -181,-140 -280,-204 -357,-232 -49,-17 -104,-18 -953,-18 -849,0 -904,1 -953,18 -77,28 -176,92 -357,232 -200,155 -324,234 -408,260 -62,19 -93,116.1335 -896,115.1335 -911.4145,64.4164 -1640.2095,-466.9132 -2073,-1045.1335 z m 7870,-314 c 105,-25 197,-106 233,-208 20,-55 20,-161 0,-216 -83,-232 -381,-295 -546,-116 -65,70 -85,123 -85,224 0,65 5,96 21,131 42,90 125,159 223,185 60,16 84,16 154,0 z m -6223,-491 v -355 h 355 355 l -2,-236 -3,-235 -352,1 h -353 l -2,-357 -3,-358 -237,-3 -238,-2 v 360 360 h -355 -355 v 235 235 h 355 355 v 355 355 h 240 240 z m 5423,-309 c 108,-25 207,-118 237,-222 18,-62 9,-180 -18,-236 -31,-63 -96,-126 -162,-157 -80,-37 -192,-36 -271,2 -66,32 -132,99 -162,165 -31,66 -31,198 -1,263 43,92 132,165 231,188 55,13 81,12 146,-3 z m 1683.9968,-26 c 112.9997,-56 177.9997,-161 177.9997,-290 0,-65 -5,-85 -33,-142 -58,-119 -160.9995,-183 -291.9986,-183 -131.9991,1 -233.9984,65 -291.9979,183 -28,57 -33,76 -33,142 1,60 6,87 27,131 79.9994,174 272.998,243 444.9968,159 z m -804.9968,-808 c 64,-31 126,-96 157,-162 34,-73 36,-191 4,-262 -30,-66 -95,-133 -162,-165 -48,-24 -68,-28 -141,-28 -73,0 -93,4 -142,28 -167,82 -234,293 -142,453 31,55 114,129 167,148 64,24 199,17 259,-12 z m -4507,-1287 c 241,-51 446,-255 501,-501 34,-154 4,-333 -78,-472 -52,-89 -160,-191 -253,-239 -107,-55 -189,-76 -305,-76 -256,-1 -480,139 -590,368 -50,105 -64,169 -63,285 1,257 138,473 370,586 127,62 275,79 418,49 z m 2768,0 c 137,-29 284,-121 371,-231 96,-122 139,-252 139,-414 -1,-185 -66,-333 -204,-465 -127,-121 -273,-179 -449,-178 -177,1 -333,65 -455,188 -123,124 -183,257 -192,425 -7,123 13,220 69,333 82,164 260,303 438,341 85,19 199,19 283,1 z"
       id="path830"
       inkscape:connector-curvature="0"
       sodipodi:nodetypes="ccsccccccccccccccccccccccscccccccccsccccccccccccccccccccccccccccccccccccccsccccccccccsccccccccccccccccccccccc"
       style="fill:#006494;fill-opacity:1" />
  </g>
  <g
     style="fill:#046865;fill-opacity:1;stroke:none"
     id="g836"
     transform="matrix(0.09659258,-0.0258819,-0.0258819,-0.09659258,215.23495,1233.7265)">
    <path
       sodipodi:nodetypes="ccsccccccccccccccccccccccscccccccccsccccccccccccccccccccccccccccccccccccccsccccccccccsccccccccccccccccccccccc"
       inkscape:connector-curvature="0"
       id="path834"
       d="M -133.12288,7684.7892 C -609.88605,6465.8598 -794.7176,4547.6608 -587.11219,2992.3988 c 45.49774,-339.8029 77.24953,-496.9392 170.42439,-844.6725 94.72777,-353.5288 140.88051,-487.1362 247.56837,-715.2977 C 155.13602,743.89068 606.10593,424.73533 1163.4179,489.17398 c 265.0984,30.65712 504.0053,147.47111 720.5843,351.47724 205.8338,193.87998 363.7824,408.05808 569.4118,772.70388 180.4323,319.589 291.3924,558.4465 564.3714,1216.522 87.1586,211.7744 186.3381,444.3694 220.7783,516.7495 l 61.5504,133.4786 2375.2116,636.436 2375.2116,636.436 120.0436,-84.8206 c 66.0161,-45.4629 283.9378,-209.6553 485.6789,-363.6895 594.2007,-455.7384 812.3626,-605.3727 1166.2445,-805.604 299.7347,-168.1527 498.6237,-253.5875 735.4237,-314.3702 308.903,-78.7327 583.49,-64.1682 838.508,46.61 119.687,51.7403 213.534,111.0507 304.585,192.3879 567.865,504.1529 509.052,1635.48 -161.306,3128.8643 -539.309,1201.3516 -1427.314,2467.6678 -2298.4793,3280.9039 -281.4239,262.093 -529.3264,449.31 -804.1868,609.634 -718.0222,401.737 -1344.503,255.507 -1763.0749,146.819 -802.4949,-211.922 -802.469,-312.475 -859.3706,-347.392 -75.3744,-47.114 -174.7025,-155.516 -328.4779,-358.2227 -138.5979,-182.0759 -217.6601,-269.5182 -284.7895,-316.4932 -42.9304,-29.1029 -95.7975,-44.3038 -915.8685,-264.0412 -820.0711,-219.7374 -873.4558,-233.0065 -925.1861,-229.2679 -81.6232,7.1169 -193.8143,43.313 -404.8815,131.6964 -233.3021,97.9547 -373.5236,142.1693 -461.3907,145.5425 -64.805,2.3058 -119.8887,88.1062 -895.2683,-120.6914 C 701.70991,9057.1725 135.26622,8355.3215 -133.12288,7684.7892 Z M 7549.9826,9418.3943 c 107.8926,3.0279 217.7222,-51.4007 278.895,-140.6077 33.5536,-47.9495 60.9884,-150.3377 55.9049,-208.64 -20.1258,-245.5767 -291.6661,-383.5581 -497.3724,-253.3626 -80.9026,50.7916 -113.9385,96.8093 -140.0792,194.3678 -16.8232,62.7852 -20.017,94.023 -13.6209,131.9715 17.2752,97.8037 79.5885,185.9346 167.52,236.4129 53.8144,30.984 76.9966,37.1956 148.7526,39.8581 z m -5883.8763,-2084.9005 91.8807,-342.9036 342.9037,91.8807 342.9037,91.8808 59.1494,-228.4761 57.9247,-227.7691 -340.2647,-90.1383 -340.9718,-91.3632 90.4665,-345.3531 89.7595,-346.5779 -228.148,-64.2379 -229.3727,-63.5308 -93.1748,347.7333 -93.1749,347.7333 -342.9037,-91.8808 -342.90363,-91.8807 -60.82248,226.9925 -60.82247,226.9926 342.90366,91.8808 342.90372,91.8807 -91.8808,342.9037 -91.8808,342.9037 231.8222,62.1165 231.8222,62.1166 z m 5318.1908,1105.1046 c 110.7905,3.8044 230.4873,-60.4037 286.3823,-153.0954 33.4334,-55.2286 55.2807,-171.5372 43.6946,-232.6172 -13.6381,-68.8767 -60.1177,-146.5533 -115.8454,-193.579 -67.6977,-56.4448 -176.1403,-84.4666 -262.2835,-68.2082 -72.0333,13.8276 -153.1253,61.4626 -199.1852,117.4491 -47.0257,55.7277 -81.1898,183.2299 -69.0353,253.7797 17.7235,99.9944 84.7971,193.5419 174.4709,241.3812 49.7613,26.7921 75.1342,32.5555 141.8016,34.8898 z m 1633.3484,410.7372 c 123.6435,-24.8452 213.6047,-109.4442 246.9923,-234.0487 16.8233,-62.7851 17.17,-83.3977 4.8768,-145.7024 -25.2242,-129.9567 -108.1502,-218.4343 -234.6865,-252.3396 -127.761,-33.1982 -242.8499,2.2215 -329.4142,101.1892 -41.7986,47.8109 -51.5458,64.8694 -68.6279,128.6205 -14.5632,58.2143 -16.7217,85.5884 -7.8252,133.5244 32.2395,188.7766 200.8047,305.3775 388.6847,268.7566 z M 8049.201,7860.5182 c 69.8427,-13.3792 146.5533,-60.1176 193.5791,-115.8453 51.7352,-61.7128 84.2077,-175.1744 71.6742,-252.0373 -11.8957,-71.5157 -57.34,-153.056 -113.7748,-201.3065 -40.1528,-35.6055 -58.436,-44.6456 -128.9486,-63.5394 -70.5126,-18.8938 -90.8664,-20.2065 -144.4084,-9.7064 -182.5328,35.9832 -301.8606,222.4526 -254.4065,400.8121 15.7087,61.1493 76.7279,154.1098 123.0044,186.1798 55.6076,39.7467 187.8193,67.9258 253.2806,55.443 z M 4028.8734,5450.8743 c 245.9879,13.1131 496.8018,-130.8778 613.5972,-354.2605 72.6996,-139.9528 90.0505,-320.618 46.8204,-476.1049 -27.1933,-99.426 -105.1137,-225.9029 -182.5215,-296.3375 -89.119,-80.8195 -162.8897,-122.3272 -274.9371,-152.3502 -247.0182,-67.2236 -499.6203,10.0306 -665.1417,202.7575 -75.4723,88.4813 -105.5596,146.6771 -134.6167,258.9833 -65.5506,248.5017 10.8763,492.5999 205.7246,661.7955 106.6258,92.7575 245.1829,147.4834 391.0748,155.5168 z m 2673.6827,716.4111 c 139.8376,7.4464 305.6401,-43.3724 418.1457,-127.107 124.3048,-92.9963 199.4861,-207.4375 241.4148,-363.9175 46.9156,-178.955 22.4356,-338.7353 -76.698,-501.9545 -91.3555,-149.7471 -217.3692,-243.5584 -387.631,-288.1446 -171.2276,-44.845 -338.4765,-23.4016 -488.1542,63.8314 -150.9024,87.9401 -243.2809,200.879 -295.4558,360.8252 -38.5963,116.9972 -44.3832,215.8683 -19.5379,339.5118 36.7596,179.635 172.7185,359.9685 334.8182,442.7435 77.1862,40.3522 187.3017,69.8576 273.0982,74.2117 z"
       style="fill:#046865;fill-opacity:1" />
  </g>
  <g
     transform="matrix(0.09659258,-0.0258819,-0.0258819,-0.09659258,215.48285,1233.9871)"
     id="g844"
     style="fill:#ffffff;fill-opacity:1;stroke:none">
    <path
       style="fill:#ffffff;fill-opacity:1"
       d="m 7549.9826,9418.3943 c 107.8926,3.0279 217.7222,-51.4007 278.895,-140.6077 33.5536,-47.9495 60.9884,-150.3377 55.9049,-208.64 -20.1258,-245.5767 -291.6661,-383.5581 -497.3724,-253.3626 -80.9026,50.7916 -113.9385,96.8093 -140.0792,194.3678 -16.8232,62.7852 -20.017,94.023 -13.6209,131.9715 17.2752,97.8037 79.5885,185.9346 167.52,236.4129 53.8144,30.984 76.9966,37.1956 148.7526,39.8581 z m -5883.8763,-2084.9005 91.8807,-342.9036 342.9037,91.8807 342.9037,91.8808 59.1494,-228.4761 57.9247,-227.7691 -340.2647,-90.1383 -340.9718,-91.3632 90.4665,-345.3531 89.7595,-346.5779 -228.148,-64.2379 -229.3727,-63.5308 -93.1748,347.7333 -93.1749,347.7333 -342.9037,-91.8808 -342.90363,-91.8807 -60.82248,226.9925 -60.82247,226.9926 342.90366,91.8808 342.90372,91.8807 -91.8808,342.9037 -91.8808,342.9037 231.8222,62.1165 231.8222,62.1166 z m 5318.1908,1105.1046 c 110.7905,3.8044 230.4873,-60.4037 286.3823,-153.0954 33.4334,-55.2286 55.2807,-171.5372 43.6946,-232.6172 -13.6381,-68.8767 -60.1177,-146.5533 -115.8454,-193.579 -67.6977,-56.4448 -176.1403,-84.4666 -262.2835,-68.2082 -72.0333,13.8276 -153.1253,61.4626 -199.1852,117.4491 -47.0257,55.7277 -81.1898,183.2299 -69.0353,253.7797 17.7235,99.9944 84.7971,193.5419 174.4709,241.3812 49.7613,26.7921 75.1342,32.5555 141.8016,34.8898 z m 1633.3484,410.7372 c 123.6435,-24.8452 213.6047,-109.4442 246.9923,-234.0487 16.8233,-62.7851 17.17,-83.3977 4.8768,-145.7024 -25.2242,-129.9567 -108.1502,-218.4343 -234.6865,-252.3396 -127.761,-33.1982 -242.8499,2.2215 -329.4142,101.1892 -41.7986,47.8109 -51.5458,64.8694 -68.6279,128.6205 -14.5632,58.2143 -16.7217,85.5884 -7.8252,133.5244 32.2395,188.7766 200.8047,305.3775 388.6847,268.7566 z M 8049.201,7860.5182 c 69.8427,-13.3792 146.5533,-60.1176 193.5791,-115.8453 51.7352,-61.7128 84.2077,-175.1744 71.6742,-252.0373 -11.8957,-71.5157 -57.34,-153.056 -113.7748,-201.3065 -40.1528,-35.6055 -58.436,-44.6456 -128.9486,-63.5394 -70.5126,-18.8938 -90.8664,-20.2065 -144.4084,-9.7064 -182.5328,35.9832 -301.8606,222.4526 -254.4065,400.8121 15.7087,61.1493 76.7279,154.1098 123.0044,186.1798 55.6076,39.7467 187.8193,67.9258 253.2806,55.443 z M 4028.8734,5450.8743 c 245.9879,13.1131 496.8018,-130.8778 613.5972,-354.2605 72.6996,-139.9528 90.0505,-320.618 46.8204,-476.1049 -27.1933,-99.426 -105.1137,-225.9029 -182.5215,-296.3375 -89.119,-80.8195 -162.8897,-122.3272 -274.9371,-152.3502 -247.0182,-67.2236 -499.6203,10.0306 -665.1417,202.7575 -75.4723,88.4813 -105.5596,146.6771 -134.6167,258.9833 -65.5506,248.5017 10.8763,492.5999 205.7246,661.7955 106.6258,92.7575 245.1829,147.4834 391.0748,155.5168 z m 2673.6827,716.4111 c 139.8376,7.4464 305.6401,-43.3724 418.1457,-127.107 124.3048,-92.9963 199.4861,-207.4375 241.4148,-363.9175 46.9156,-178.955 22.4356,-338.7353 -76.698,-501.9545 -91.3555,-149.7471 -217.3692,-243.5584 -387.631,-288.1446 -171.2276,-44.845 -338.4765,-23.4016 -488.1542,63.8314 -150.9024,87.9401 -243.2809,200.879 -295.4558,360.8252 -38.5963,116.9972 -44.3832,215.8683 -19.5379,339.5118 36.7596,179.635 172.7185,359.9685 334.8182,442.7435 77.1862,40.3522 187.3017,69.8576 273.0982,74.2117 z"
       id="path842"
       inkscape:connector-curvature="0"
       sodipodi:nodetypes="ccccsccccccccccccccccccccccccccccccccccccccsccccccccccsccccccccccccccccccccccc" />
  </g>
</svg>
